<?xml version="1.0" standalone="no"?>
<!DOCTYPE svg PUBLIC "-//W3C//DTD SVG 20010904//EN"
 "http://www.w3.org/TR/2001/REC-SVG-20010904/DTD/svg10.dtd">
<svg version="1.0" xmlns="http://www.w3.org/2000/svg"
 width="96.000000pt" height="96.000000pt" viewBox="0 0 96.000000 96.000000"
 preserveAspectRatio="xMidYMid meet">
<metadata>
Created by potrace 1.11, written by Peter Selinger 2001-2013
</metadata>
<g transform="translate(0.000000,96.000000) scale(0.100000,-0.100000)"
fill="#000000" stroke="none">
<path d="M74 598 c-3 -4 -1 -8 4 -8 5 0 24 -35 42 -77 19 -43 36 -82 40 -86 4
-4 22 27 40 70 18 43 37 82 42 88 13 15 9 24 -12 22 -21 -1 -29 -17 -9 -17 8
0 8 -4 2 -12 -6 -7 -18 -35 -28 -61 -10 -26 -21 -50 -25 -52 -8 -5 -56 114
-52 130 2 12 -37 15 -44 3z"/>
<path d="M275 599 c-4 -5 -2 -9 4 -9 13 0 12 -140 -2 -157 -7 -10 -3 -13 14
-13 24 0 24 2 24 93 0 81 -2 93 -17 94 -10 1 -20 -2 -23 -8z"/>
<path d="M359 522 c2 -63 0 -87 -10 -93 -10 -6 -3 -9 21 -9 26 0 31 3 22 12
-7 7 -12 26 -12 42 l0 30 43 -42 c23 -23 50 -42 59 -42 11 0 0 16 -33 47 l-50
46 47 48 c39 40 44 48 26 46 -12 -1 -22 -6 -22 -12 0 -6 -16 -26 -35 -45 l-35
-34 0 37 c0 20 5 37 10 37 6 0 10 4 10 8 0 4 -10 8 -22 8 -22 0 -23 -2 -19
-84z"/>
<path d="M525 513 c0 -93 0 -93 25 -93 18 0 21 3 11 9 -10 6 -12 30 -10 94 3
71 2 85 -11 84 -12 -1 -15 -18 -15 -94z"/>
<path d="M580 581 c0 -4 68 -7 150 -7 83 0 150 3 150 6 0 3 -67 6 -150 6 -82
1 -150 -2 -150 -5z"/>
<path d="M585 500 c0 -27 3 -50 8 -50 4 0 7 23 7 50 0 28 -4 50 -8 50 -4 0 -8
-22 -7 -50z"/>
<path d="M682 512 c-12 -22 -22 -46 -22 -53 0 -8 8 2 17 21 21 45 20 43 33 35
8 -5 7 -11 -2 -23 -11 -13 -11 -14 0 -8 9 5 15 1 19 -13 3 -12 9 -21 14 -21
13 0 11 10 -14 58 l-23 43 -22 -39z"/>
<path d="M748 538 c5 -7 13 -28 17 -45 7 -35 19 -42 29 -17 3 8 2 12 -4 9 -5
-3 -12 10 -16 30 -4 22 -12 35 -21 35 -11 0 -13 -4 -5 -12z"/>
<path d="M811 538 c1 -19 37 -95 38 -80 1 20 -23 92 -31 92 -5 0 -8 -6 -7 -12z"/>
<path d="M795 510 c-3 -5 -1 -10 4 -10 6 0 11 5 11 10 0 6 -2 10 -4 10 -3 0
-8 -4 -11 -10z"/>
<path d="M625 460 c-19 -8 -19 -9 3 -9 12 -1 22 4 22 9 0 6 -1 10 -2 9 -2 0
-12 -4 -23 -9z"/>
<path d="M588 423 c7 -3 16 -2 19 1 4 3 -2 6 -13 5 -11 0 -14 -3 -6 -6z"/>
<path d="M708 423 c6 -2 18 -2 25 0 6 3 1 5 -13 5 -14 0 -19 -2 -12 -5z"/>
<path d="M778 423 c6 -2 18 -2 25 0 6 3 1 5 -13 5 -14 0 -19 -2 -12 -5z"/>
<path d="M660 380 c0 -5 5 -10 11 -10 5 0 7 5 4 10 -3 6 -8 10 -11 10 -2 0 -4
-4 -4 -10z"/>
<path d="M715 380 c-3 -5 1 -10 10 -10 9 0 13 5 10 10 -3 6 -8 10 -10 10 -2 0
-7 -4 -10 -10z"/>
</g>
</svg>
